# xmcd
#
# Track frame offsets:
#	150
#	8802
#	20978
#	30478
#	45599
#	62159
#	90287
#	109105
#	127821
#	141567
#	154501
#	163776
#	173141
#
# Disc length: 2480 seconds
# Revision: 0
# Processed by: cddbd v1.5.2PL0 Copyright (c) Steve Scherf et al.
# Submitted via: dBpowerAMP V12.0
#
DISCID=a109ae0d
DTITLE=Terry Robb - Confessin' My Dues
DYEAR=2019
DGENRE=Blues
TTITLE0=Butch Holler Stomp
TTITLE1=Still on 101
TTITLE2=How a Free Man Feels
TTITLE3=It Might Get Sweaty
TTITLE4=Heart Made of Steel
TTITLE5=Now Vestapol
TTITLE6=Darkest Road I'm Told
TTITLE7=Three Times the Blues
TTITLE8=Confessin' My Dues
TTITLE9=Death of Blind Arthur
TTITLE10=High Desert Everywhere
TTITLE11=Keep Your Judgment
TTITLE12=Blood Red Moon
EXTD=
EXTT0=
EXTT1=
EXTT2=
EXTT3=
EXTT4=
EXTT5=
EXTT6=
EXTT7=
EXTT8=
EXTT9=
EXTT10=
EXTT11=
EXTT12=
PLAYORDER=
